# AST/ASF file generated using VICON BodyLanguage
# -----------------------------------------------
:version 1.10
:name VICON
:units
  mass 1.0
  length 0.45
  angle deg
:documentation
   .ast/.asf automatically generated from VICON data using
   VICON BodyBuilder and BodyLanguage model FoxedUp or BRILLIANT.MOD
:root
   order TX TY TZ RX RY RZ
   axis XYZ
   position 0 0 0  
   orientation 0 0 0 
:bonedata
  begin
     id 1 
     name lhipjoint
     direction 0.575328 -0.747301 0.332475 
     length 2.40933 
     axis 0 0 0  XYZ
  end
  begin
     id 2 
     name lfemur
     direction 0.34202 -0.939693 0  
     length 7.31453  
     axis 0 0 20  XYZ
    dof rx ry rz
    limits (-160.0 20.0)
           (-70.0 70.0)
           (-60.0 70.0)
  end
  begin
     id 3 
     name ltibia
     direction 0.34202 -0.939693 0   
     length 7.82185   
     axis 0 0 20   XYZ
    dof rx
    limits (-10.0 170.0)
  end
  begin
     id 4 
     name lfoot
     direction 0.0795993 -0.218697 0.972541   
     length 2.19173   
     axis -90 7.62852e-016 20   XYZ
    dof rx rz
    limits (-45.0 90.0)
           (-70.0 20.0)
  end
  begin
     id 5 
     name ltoes
     direction 1.53537e-011 -4.21894e-011 1   
     length 1.10023   
     axis -90 7.62852e-016 20   XYZ
    dof rx
    limits (-90.0 20.0)
  end
  begin
     id 6 
     name rhipjoint
     direction -0.513884 -0.783789 0.348708   
     length 2.29716  
     axis 0 0 0  XYZ 
  end
  begin
     id 7 
     name rfemur
     direction -0.34202 -0.939693 0   
     length 7.59573   
     axis 0 0 -20   XYZ
    dof rx ry rz
    limits (-160.0 20.0)
           (-70.0 70.0)
           (-70.0 60.0)
  end
  begin
     id 8 
     name rtibia
     direction -0.34202 -0.939693 0   
     length 7.66402   
     axis 0 0 -20   XYZ
    dof rx
    limits (-10.0 170.0)
 end
 begin
     id 9 
     name rfoot
     direction -0.137793 -0.378584 0.915253   
     length 2.27056  
     axis -90 -7.62852e-016 -20   XYZ
    dof rx rz
    limits (-45.0 90.0)
           (-20.0 70.0)
  end
  begin
     id 10 
     name rtoes
     direction -1.53493e-011 -4.22159e-011 1   
     length 1.11766   
     axis -90 -7.62852e-016 -20   XYZ
    dof rx
    limits (-90.0 20.0)
  end
  begin
     id 11 
     name lowerback
     direction -0.00732775 0.998356 -0.05685   
     length 2.16513   
     axis 0 0 0   XYZ
    dof rx ry rz
    limits (-20.0 45.0)
           (-30.0 30.0)
           (-30.0 30.0)
  end
  begin
     id 12 
     name upperback
     direction 0.0218081 0.999627 -0.0164647   
     length 2.16755   
     axis 0 0 0   XYZ
    dof rx ry rz
    limits (-20.0 45.0)
           (-30.0 30.0)
           (-30.0 30.0)
  end
  begin
     id 13 
     name thorax
     direction 0.02365 0.999661 0.0108914   
     length 2.16932   
     axis 0 0 0   XYZ
    dof rx ry rz
    limits (-20.0 45.0)
           (-30.0 30.0)
           (-30.0 30.0)
  end
  begin
     id 14 
     name lowerneck
     direction -0.0523929 0.978385 0.200044   
     length 1.63877   
     axis 0 0 0   XYZ
    dof rx ry rz
    limits (-20.0 45.0)
           (-30.0 30.0)
           (-30.0 30.0)
  end
  begin
     id 15 
     name upperneck
     direction 0.0448674 0.981321 -0.187074   
     length 1.69014   
     axis 0 0 0   XYZ
    dof rx ry rz
    limits (-20.0 45.0)
           (-30.0 30.0)
           (-30.0 30.0)
  end
  begin
     id 16
     name head
     direction 0.0199089 0.996118 -0.0857429  
     length 1.70094  
     axis 0 0 0   XYZ
    dof rx ry rz
    limits (-20.0 45.0)
           (-30.0 30.0)
           (-30.0 30.0)
  end
  begin
     id 17 
     name lclavicle
     direction 0.940366 0.30191 -0.156722  
     length 3.37521  
     axis 0 0 0   XYZ
    dof ry rz
    limits (-20.0 10.0)
           (0.0 20.0)
  end
  begin
     id 18 
     name lhumerus
     direction 1 -4.4897e-011 -1.7911e-027   
     length 5.25287   
     axis 180 -30 -90   XYZ
    dof rx ry rz
    limits (-60.0 90.0)
           (-90.0 90.0)
           (-90.0 90.0)
  end
  begin
     id 19
     name lradius
     direction 1 -4.48951e-011 1.04424e-027   
     length 3.51014   
     axis 180 -30 -90   XYZ
    dof rx
    limits (-10.0 170.0)
  end
  begin
     id 20
     name lwrist
     direction 1 -4.48997e-011 -9.5942e-028   
     length 1.75507   
     axis 8.48502e-016 90 90   XYZ
    dof ry
    limits (-180.0 0.0)
 end
  begin
     id 21 
     name lhand
     direction 1 -4.48831e-011 -1.90777e-027   
     length 0.706179   
     axis 1.22306e-015 90 90   XYZ
    dof rx rz
    limits (-90.0 90.0)
           (-45.0 45.0)
  end
  begin
     id 22 
     name lfingers
     direction 1 -4.49108e-011 -3.85244e-027   
     length 0.569339   
     axis 2.44611e-015 90 90   XYZ
    dof rx
    limits (0.0 90.0)
  end
  begin
     id 23
     name lthumb
     direction 0.707107 -6.34953e-011 0.707107   
     length 0.817461   
     axis -90 45 -1.62303e-014   XYZ
    dof rx rz
    limits (-45.0 45.0)
           (-45.0 45.0)
  end
  begin
     id 24 
     name rclavicle
     direction -0.905329 0.382405 -0.184787   
     length 3.30787  
     axis 0 0 0   XYZ 
    dof ry rz
    limits (-10.0 20.0)
           (-20.0 0.0)
  end
  begin
     id 25 
     name rhumerus
     direction -1 -4.48953e-011 -9.15316e-029  
     length 5.28721   
     axis 180 30 90   XYZ
    dof rx ry rz
    limits (-90.0 60.0)
           (-90.0 90.0)
           (-90.0 90.0)
  end
  begin
     id 26 
     name rradius
     direction -1 -4.48987e-011 9.37824e-028   
     length 3.50544   
     axis 180 30 90   XYZ
    dof rx
    limits (-10.0 170.0)
  end
  begin
     id 27 
     name rwrist
     direction -1 -4.48967e-011 -9.58414e-028   
     length 1.75272   
     axis 8.48502e-016 -90 -90   XYZ
    dof ry
    limits (-180.0 0.0)
  end
  begin
     id 28
     name rhand
     direction -1 -4.48904e-011 -1.91266e-027   
     length 0.884996   
     axis 1.22306e-015 -90 -90   XYZ
    dof rx rz
    limits (-90.0 90.0)
           (-45.0 45.0)
  end
  begin
     id 29
     name rfingers
     direction -1 -4.4909e-011 -3.85015e-027   
     length 0.713507   
     axis 2.44611e-015 -90 -90   XYZ
    dof rx
    limits (0.0 90.0)
  end
  begin
     id 30
     name rthumb
     direction -0.707107 -6.34853e-011 0.707107   
     length 1.02446   
     axis -90 -45 1.62303e-014   XYZ
    dof rx rz
    limits (-45.0 45.0)
           (-45.0 45.0)
  end
:hierarchy
  begin
    root lhipjoint rhipjoint lowerback
    lhipjoint lfemur
    lfemur ltibia
    ltibia lfoot
    lfoot ltoes
    rhipjoint rfemur
    rfemur rtibia
    rtibia rfoot
    rfoot rtoes
    lowerback upperback
    upperback thorax
    thorax lowerneck lclavicle rclavicle
    lowerneck upperneck
    upperneck head
    lclavicle lhumerus
    lhumerus lradius
    lradius lwrist
    lwrist lhand lthumb
    lhand lfingers
    rclavicle rhumerus
    rhumerus rradius
    rradius rwrist
    rwrist rhand rthumb
    rhand rfingers
  end

#!OML:ASF F:\twosubjects\two\Thursday\Session 1\justin.ASF
:FULLY-SPECIFIED
:DEGREES
135
root 5.53546 17.1977 -8.52141 17.3572 4.3704 2.57507
lowerback 24.478 0.29714 0.249717
upperback 7.0916 0.664523 2.56001
thorax -5.81951 0.320188 2.45307
lowerneck -16.7337 -4.48028 -11.4043
upperneck 6.81278 -4.57783 9.39324
head 5.24663 -1.92225 4.38905
rclavicle -1.19271e-014 -2.06736e-014
rhumerus -3.78112 41.4255 -78.9251
rradius 51.9882
rwrist 18.1523
rhand -52.0144 27.7487
rfingers 7.12502
rthumb -24.5213 -0.701248
lclavicle -1.19271e-014 -2.06736e-014
lhumerus 0.572073 -35.547 83.3427
lradius 44.0242
lwrist -35.0612
lhand -25.4456 54.6719
lfingers 7.12502
lthumb 1.08121 444.649
rfemur -42.8023 -10.026 6.4171
rtibia 42.3513
rfoot -14.0377 -7.82125
rtoes -21.1365
lfemur -32.2632 10.3198 -2.18246
ltibia 50.2391
lfoot -6.96917 -7.14257
ltoes -22.2201
136
root 5.54271 17.1904 -8.4774 17.7244 4.27132 2.86096
lowerback 24.1518 0.239616 -0.0273638
upperback 6.98049 0.51462 2.4465
thorax -5.7726 0.249761 2.52969
lowerneck -16.7775 -4.43034 -11.436
upperneck 6.96561 -4.536 9.63866
head 5.30516 -1.8852 4.47912
rclavicle 2.38542e-015 8.74653e-015
rhumerus -3.89449 41.4711 -79.2856
rradius 51.7445
rwrist 18.839
rhand -52.1207 27.5556
rfingers 7.12502
rthumb -24.6232 -0.880516
lclavicle 2.38542e-015 8.74653e-015
lhumerus 0.309144 -35.3396 83.3758
lradius 43.9085
lwrist -34.9665
lhand -25.5027 54.7235
lfingers 7.12502
lthumb 1.02609 444.701
rfemur -43.0504 -10.4374 6.25111
rtibia 42.3317
rfoot -14.1129 -7.5586
rtoes -21.3837
lfemur -32.9148 10.2172 -2.71236
ltibia 49.3552
lfoot -7.74798 -6.9195
ltoes -22.9768
137
root 5.55669 17.1915 -8.42137 17.7943 3.88428 3.01764
lowerback 24.249 0.320089 -0.295743
upperback 6.7484 0.548225 2.3199
thorax -6.07864 0.270042 2.53824
lowerneck -16.4016 -4.34619 -11.1615
upperneck 7.17528 -4.5192 9.50844
head 5.2986 -1.88763 4.39733
rclavicle 2.38542e-015 1.27222e-014
rhumerus -4.64382 41.1767 -80.1264
rradius 51.4631
rwrist 19.7772
rhand -52.4896 27.5968
rfingers 7.12502
rthumb -24.9768 -0.79072
lclavicle 2.38542e-015 1.27222e-014
lhumerus -0.272564 -35.4286 83.5804
lradius 43.7543
lwrist -34.9401
lhand -25.5131 54.7668
lfingers 7.12502
lthumb 1.01602 444.744
rfemur -43.0013 -10.4795 6.09067
rtibia 42.3041
rfoot -14.2087 -7.40234
rtoes -21.4478
lfemur -32.9894 10.2518 -3.12539
ltibia 48.0826
lfoot -8.43719 -6.57476
ltoes -22.3831
138
root 5.56995 17.1969 -8.36783 17.8829 3.6592 3.02157
lowerback 24.3538 0.4753 -0.28869
upperback 6.5321 0.755248 2.36218
thorax -6.37944 0.372117 2.52229
lowerneck -15.7962 -4.30564 -11.1414
upperneck 7.0957 -4.50388 9.30058
head 5.16781 -1.9081 4.33212
rclavicle -9.54166e-015 -2.46493e-014
rhumerus -5.22617 40.7657 -80.4055
rradius 51.2886
rwrist 19.8655
rhand -52.5759 28.1885
rfingers 7.12502
rthumb -25.0594 -0.187416
lclavicle -9.54166e-015 -2.46493e-014
lhumerus -0.72915 -35.8597 84.1259
lradius 43.6388
lwrist -34.9206
lhand -25.5848 55.3567
lfingers 7.12502
lthumb 0.946736 445.334
rfemur -42.9536 -10.4327 6.0915
rtibia 42.2539
rfoot -14.1882 -7.48457
rtoes -22.0144
lfemur -33.0989 10.0798 -3.30734
ltibia 46.5383
lfoot -8.89161 -6.15828
ltoes -22.0669
139
root 5.58496 17.211 -8.30825 17.9176 3.48779 3.10127
lowerback 24.3305 0.523186 -0.306134
upperback 6.5615 0.807674 2.3228
thorax -6.33753 0.396678 2.47373
lowerneck -15.979 -4.3365 -10.9331
upperneck 7.14707 -4.54298 9.04486
head 5.20544 -1.93416 4.21004
rclavicle 1.66979e-014 -2.38542e-015
rhumerus -5.10792 40.8406 -80.292
rradius 51.1929
rwrist 19.2072
rhand -52.6108 28.6071
rfingers 7.12502
rthumb -25.0929 0.235858
lclavicle 1.66979e-014 -2.38542e-015
lhumerus -0.738267 -36.1734 84.1594
lradius 43.5934
lwrist -34.8127
lhand -25.7269 56.0829
lfingers 7.12502
lthumb 0.809479 446.061
rfemur -42.7665 -10.4402 5.98151
rtibia 42.1297
rfoot -14.1668 -7.45279
rtoes -22.412
lfemur -32.9524 9.68326 -3.50823
ltibia 44.7139
lfoot -9.3369 -5.97554
ltoes -20.861
140
root 5.60576 17.2374 -8.2392 17.7242 3.10327 3.16262
lowerback 24.3959 0.55645 -0.473441
upperback 6.77726 0.800193 2.25367
thorax -6.13385 0.390769 2.49593
lowerneck -16.515 -4.41774 -10.7802
upperneck 7.30014 -4.61741 8.87336
head 5.33881 -1.96579 4.11804
rclavicle 7.95139e-015 1.66979e-014
rhumerus -4.62803 41.2647 -80.0871
rradius 51.0535
rwrist 18.1236
rhand -52.5083 29.1102
rfingers 7.12502
rthumb -24.9947 0.725223
lclavicle 7.95139e-015 1.66979e-014
lhumerus -0.467144 -36.468 83.7148
lradius 43.5905
lwrist -34.2632
lhand -25.6744 55.7822
lfingers 7.12502
lthumb 0.860198 445.76
rfemur -42.3304 -10.277 5.82284
rtibia 42.0388
rfoot -14.397 -7.34556
rtoes -22.6669
lfemur -32.3771 9.59231 -3.80191
ltibia 42.7571
lfoot -10.1083 -5.97611
ltoes -21.618
141
root 5.62457 17.2486 -8.17923 17.5632 2.83289 3.04525
lowerback 24.4719 0.589409 -0.437282
upperback 6.91573 0.847121 2.24876
thorax -6.02157 0.410694 2.456
lowerneck -16.3173 -4.37382 -10.8577
upperneck 6.9649 -4.56036 9.00284
head 5.20193 -1.93509 4.17898
rclavicle -3.18055e-015 -1.43125e-014
rhumerus -4.39284 41.148 -80.0552
rradius 51.0056
rwrist 17.6227
rhand -51.8295 29.5124
rfingers 7.12502
rthumb -24.344 1.03849
lclavicle -3.18055e-015 -1.43125e-014
lhumerus -0.389901 -36.7088 83.5101
lradius 43.5524
lwrist -33.8528
lhand -26.084 55.9856
lfingers 7.12502
lthumb 0.464653 445.965
rfemur -42.0228 -10.1206 5.92261
rtibia 42.0233
rfoot -14.6867 -7.37785
rtoes -23.2296
lfemur -31.8911 9.2925 -3.70766
ltibia 40.7965
lfoot -10.1611 -6.14608
ltoes -18.5433
142
root 5.6387 17.2319 -8.14539 17.8759 3.04091 2.82906
lowerback 24.2079 0.318967 -0.266905
upperback 6.96154 0.537324 2.22381
thorax -5.82249 0.259861 2.41853
lowerneck -16.797 -4.14514 -10.3925
upperneck 7.13225 -4.31377 8.99808
head 5.2967 -1.79036 4.12452
rclavicle 2.14687e-014 -1.03368e-014
rhumerus -3.94093 41.0865 -80.2497
rradius 50.9988
rwrist 17.8408
rhand -51.5776 29.7595
rfingers 7.12502
rthumb -24.1026 1.25343
lclavicle 2.14687e-014 -1.03368e-014
lhumerus -0.337869 -36.2352 83.1435
lradius 43.4111
lwrist -34.0575
lhand -26.4061 56.481
lfingers 7.12502
lthumb 0.153513 446.461
rfemur -42.2586 -10.2125 6.18683
rtibia 42.0091
rfoot -14.677 -7.57754
rtoes -23.2782
lfemur -32.2383 8.56404 -3.33143
ltibia 38.785
lfoot -9.91478 -6.24556
ltoes -13.0707
143
root 5.64962 17.2211 -8.1306 18.6675 3.59654 2.66474
lowerback 23.5154 -0.347442 -0.375871
upperback 7.11128 -0.351597 2.14287
thorax -5.26864 -0.172397 2.6314
lowerneck -18.7439 -3.64146 -8.94798
upperneck 8.05852 -3.79536 8.58912
head 5.81313 -1.47747 3.80677
rclavicle 2.3059e-014 -2.38542e-014
rhumerus -2.40126 41.9418 -80.3319
rradius 50.6746
rwrist 18.3723
rhand -51.9729 30.0454
rfingers 7.12502
rthumb -24.4816 1.59005
lclavicle 2.3059e-014 -2.38542e-014
lhumerus 0.239789 -35.0803 81.7526
lradius 43.3399
lwrist -34.0934
lhand -25.0427 54.7565
lfingers 7.12502
lthumb 1.47037 444.731
rfemur -42.9764 -10.5248 6.47842
rtibia 42.0634
rfoot -14.5605 -8.0422
rtoes -22.9548
lfemur -33.4941 8.04035 -3.27347
ltibia 36.7164
lfoot -10.5451 -5.89868
ltoes -17.2348
144
root 5.68049 17.2402 -8.05548 18.2539 2.74015 2.40253
lowerback 23.9135 0.299109 -0.259514
upperback 6.82549 0.532669 2.50937
thorax -5.8256 0.256399 2.72632
lowerneck -17.183 -4.24287 -10.5715
upperneck 7.87349 -4.41582 9.08007
head 5.60789 -1.83179 4.17061
rclavicle -3.18055e-015 8.74653e-015
rhumerus -3.81257 40.9976 -80.0253
rradius 50.5598
rwrist 19.2617
rhand -52.3827 30.0465
rfingers 7.12502
rthumb -24.8743 1.64484
lclavicle -3.18055e-015 8.74653e-015
lhumerus -0.54139 -36.4051 83.3641
lradius 43.3103
lwrist -33.8402
lhand -25.0049 55.4649
lfingers 7.12502
lthumb 1.50682 445.439
rfemur -42.5046 -10.0444 6.5962
rtibia 42.0829
rfoot -14.7932 -7.79763
rtoes -23.4687
lfemur -32.5906 8.41594 -3.39157
ltibia 34.533
lfoot -11.4287 -5.32656
ltoes -21.4512
145
root 5.71087 17.2385 -8.0162 18.5093 2.813 2.59192
lowerback 23.7952 0.293124 -0.177243
upperback 6.55294 0.556137 2.60555
thorax -6.06607 0.27108 2.77839
lowerneck -16.3007 -4.38331 -10.9157
upperneck 7.55522 -4.59066 8.9894
head 5.38789 -1.95448 4.1833
rclavicle 4.77083e-015 3.97569e-015
rhumerus -4.41485 40.6529 -80.0566
rradius 50.4541
rwrist 19.8222
rhand -52.3511 29.165
rfingers 7.12502
rthumb -24.844 0.75911
lclavicle 4.77083e-015 3.97569e-015
lhumerus -1.00393 -37.0948 83.9576
lradius 43.4069
lwrist -33.4566
lhand -25.3509 55.9737
lfingers 7.12502
lthumb 1.17265 445.95
rfemur -42.6042 -10.5351 6.47474
rtibia 42.1639
rfoot -14.8616 -7.61378
rtoes -24.0313
lfemur -32.8495 7.81901 -3.67158
ltibia 32.2213
lfoot -11.5624 -5.27169
ltoes -21.7531
